<?xml version="1.0" standalone="no"?>
<!DOCTYPE svg PUBLIC "-//W3C//DTD SVG 20010904//EN"
 "http://www.w3.org/TR/2001/REC-SVG-20010904/DTD/svg10.dtd">
<svg version="1.0" xmlns="http://www.w3.org/2000/svg"
 width="1130.000000pt" height="1094.000000pt" viewBox="0 0 1130.000000 1094.000000"
 preserveAspectRatio="xMidYMid meet">

<g transform="translate(0.000000,1094.000000) scale(0.100000,-0.100000)"
fill="#000000" stroke="none">
<path d="M0 5470 l0 -5470 5650 0 5650 0 0 5470 0 5470 -5650 0 -5650 0 0
-5470z m5432 1157 c131 -62 185 -176 175 -372 -6 -121 -26 -181 -84 -245 -56
-62 -124 -92 -226 -98 -246 -15 -377 112 -377 363 0 84 15 158 44 213 24 46
83 110 120 129 93 49 255 54 348 10z m-769 8 c79 -17 124 -45 143 -91 39 -94
-5 -194 -101 -227 l-40 -14 39 -7 c53 -10 112 -49 132 -88 24 -46 23 -136 -2
-179 -23 -39 -70 -74 -123 -90 -21 -7 -132 -14 -263 -16 -204 -4 -228 -3 -228
11 0 11 9 16 30 16 l30 0 0 335 0 335 -30 0 c-20 0 -30 5 -30 15 0 13 27 15
188 15 124 0 210 -5 255 -15z m1387 0 c0 -12 -13 -15 -55 -15 l-55 0 0 -335 0
-335 38 0 c83 1 140 47 210 172 43 77 55 65 47 -49 -3 -54 -9 -110 -11 -125
l-6 -28 -274 0 c-237 0 -274 2 -274 15 0 10 10 15 30 15 l30 0 0 335 0 335
-30 0 c-20 0 -30 5 -30 15 0 13 28 15 190 15 162 0 190 -2 190 -15z m747 -9
c94 -30 169 -103 195 -190 19 -63 16 -241 -5 -302 -23 -67 -77 -128 -139 -160
-82 -42 -164 -54 -370 -54 -161 0 -188 2 -188 15 0 10 11 15 35 15 l35 0 0
335 0 335 -35 0 c-25 0 -35 4 -35 16 0 14 23 16 228 12 174 -4 239 -9 279 -22z
m-3675 -1002 c57 -13 76 -14 91 -5 10 7 20 11 22 9 2 -2 5 -50 7 -108 2 -75 0
-105 -9 -105 -6 0 -30 28 -53 62 -50 75 -102 121 -148 129 -41 8 -106 -10
-133 -37 -19 -19 -25 -71 -13 -104 9 -22 72 -53 179 -86 172 -54 220 -107 220
-245 0 -72 -3 -86 -30 -130 -64 -102 -175 -134 -354 -100 -78 14 -86 14 -103
-1 -10 -9 -20 -14 -23 -11 -3 2 -8 59 -12 126 -5 104 -4 122 9 122 8 0 24 -17
36 -37 60 -106 159 -183 236 -183 100 0 161 93 105 164 -27 34 -62 52 -171 86
-49 16 -106 40 -127 54 -95 66 -118 214 -49 316 63 91 167 119 320 84z m750
-17 c131 -62 185 -176 175 -372 -6 -121 -26 -181 -84 -245 -56 -62 -124 -92
-226 -98 -246 -15 -377 112 -377 363 0 84 15 158 44 213 24 46 83 110 120 129
93 49 255 54 348 10z m3140 0 c131 -62 185 -176 175 -372 -6 -121 -26 -181
-84 -245 -56 -62 -124 -92 -226 -98 -246 -15 -377 112 -377 363 0 84 15 158
44 213 24 46 83 110 120 129 93 49 255 54 348 10z m1320 17 c57 -13 76 -14 91
-5 10 7 20 11 22 9 2 -2 5 -50 7 -108 2 -75 0 -105 -9 -105 -6 0 -30 28 -53
62 -50 75 -102 121 -148 129 -41 8 -106 -10 -133 -37 -19 -19 -25 -71 -13
-104 9 -22 72 -53 179 -86 172 -54 220 -107 220 -245 0 -72 -3 -86 -30 -130
-64 -102 -175 -134 -354 -100 -78 14 -86 14 -103 -1 -10 -9 -20 -14 -23 -11
-3 2 -8 59 -12 126 -5 104 -4 122 9 122 8 0 24 -17 36 -37 60 -106 159 -183
236 -183 100 0 161 93 105 164 -27 34 -62 52 -171 86 -49 16 -106 40 -127 54
-95 66 -118 214 -49 316 63 91 167 119 320 84z m-3842 -9 c0 -12 -13 -15 -55
-15 l-55 0 0 -335 0 -335 38 0 c83 1 140 47 210 172 43 77 55 65 47 -49 -3
-54 -9 -110 -11 -125 l-6 -28 -274 0 c-237 0 -274 2 -274 15 0 10 10 15 30 15
l30 0 0 335 0 335 -30 0 c-20 0 -30 5 -30 15 0 13 28 15 190 15 162 0 190 -2
190 -15z m540 0 c0 -11 -11 -15 -36 -15 l-36 0 4 -277 c4 -303 9 -333 63 -369
72 -47 190 -16 229 61 19 37 21 61 24 312 l3 272 -32 3 c-18 2 -34 9 -37 16
-3 9 17 12 77 12 65 0 81 -3 81 -15 0 -9 -9 -15 -24 -15 l-24 0 -4 -267 c-5
-276 -10 -307 -50 -366 -11 -15 -38 -37 -61 -50 -37 -19 -57 -22 -157 -22
-163 0 -225 31 -273 135 -19 41 -22 67 -25 308 l-4 262 -24 0 c-15 0 -24 6
-24 15 0 13 25 15 165 15 140 0 165 -2 165 -15z m1023 -82 c4 -54 7 -115 7
-135 0 -59 -24 -47 -50 25 -34 96 -67 147 -106 163 -18 8 -38 14 -44 14 -7 0
-10 -111 -10 -335 l0 -335 40 0 c29 0 40 -4 40 -15 0 -13 -28 -15 -190 -15
-162 0 -190 2 -190 15 0 11 12 15 45 15 l45 0 0 336 0 337 -32 -7 c-57 -11
-99 -67 -138 -181 -19 -55 -45 -68 -44 -22 0 15 1 74 2 132 l2 105 308 0 309
0 6 -97z m377 82 c0 -9 -9 -15 -25 -15 l-25 0 0 -335 0 -335 25 0 c16 0 25 -6
25 -15 0 -13 -24 -15 -160 -15 -136 0 -160 2 -160 15 0 10 10 15 30 15 l30 0
0 335 0 335 -30 0 c-20 0 -30 5 -30 15 0 13 24 15 160 15 136 0 160 -2 160
-15z m1223 -196 c60 -115 120 -229 133 -252 l24 -42 0 238 0 237 -30 0 c-20 0
-30 5 -30 15 0 12 15 15 75 15 60 0 75 -3 75 -15 0 -10 -10 -15 -30 -15 l-30
0 0 -350 0 -351 -76 3 -76 3 -165 310 c-91 171 -169 314 -174 320 -5 5 -9
-111 -9 -298 l0 -307 30 0 c20 0 30 -5 30 -15 0 -12 -15 -15 -75 -15 -60 0
-75 3 -75 15 0 10 10 15 30 15 l30 0 0 335 0 335 -30 0 c-20 0 -30 5 -30 15 0
13 23 15 148 15 l147 0 108 -211z m-4143 -897 c36 -18 84 -78 74 -93 -11 -19
-43 -8 -77 26 -62 62 -132 38 -157 -55 -17 -62 -4 -118 35 -157 45 -45 78 -44
124 5 25 25 43 36 59 34 27 -4 27 -8 2 -49 -29 -48 -65 -67 -126 -67 -64 -1
-99 21 -132 85 -20 37 -23 55 -19 115 3 50 10 82 25 107 40 63 122 84 192 49z
m1845 8 c33 -13 75 -58 75 -81 0 -29 -38 -23 -70 11 -31 33 -64 38 -98 14 -48
-33 -20 -72 70 -98 89 -25 127 -84 96 -150 -45 -101 -234 -74 -250 35 -2 19 2
25 22 27 19 2 29 -5 42 -28 25 -44 56 -55 101 -36 29 12 37 21 37 40 0 31 -25
48 -101 70 -86 24 -114 71 -85 140 23 55 96 81 161 56z m2315 -10 c0 -13 -7
-20 -18 -20 -25 0 -42 -19 -42 -47 0 -19 5 -23 30 -23 25 0 30 -4 30 -25 0
-21 -5 -25 -30 -25 l-30 0 0 -105 0 -105 -25 0 -25 0 0 104 c0 101 -1 105 -22
108 -15 2 -24 11 -26 26 -3 18 1 22 22 22 23 0 26 4 26 33 0 51 24 77 71 77
32 0 39 -3 39 -20z m-3980 -170 l0 -180 -25 0 -25 0 0 180 0 180 25 0 25 0 0
-180z m123 168 c6 -18 -11 -48 -27 -48 -20 0 -37 25 -30 44 7 19 50 22 57 4z
m2037 -168 l0 -180 -25 0 -25 0 0 180 0 180 25 0 25 0 0 -180z m1085 168 c33
-15 55 -56 55 -103 0 -79 -42 -115 -135 -115 l-55 0 0 -65 0 -65 -30 0 -30 0
0 180 0 180 85 0 c46 0 96 -5 110 -12z m838 0 c6 -18 -11 -48 -27 -48 -20 0
-37 25 -30 44 7 19 50 22 57 4z m-3225 -55 c3 -29 7 -33 33 -33 24 0 29 -4 29
-25 0 -21 -5 -25 -30 -25 l-31 0 3 -82 c3 -78 4 -82 28 -88 31 -7 35 -44 4
-48 -65 -9 -94 38 -94 156 0 55 -2 62 -20 62 -14 0 -20 7 -20 24 0 15 7 26 20
29 13 3 20 14 20 29 0 31 9 40 35 36 15 -2 21 -12 23 -35z m3370 0 c3 -29 7
-33 33 -33 24 0 29 -4 29 -25 0 -21 -5 -25 -30 -25 l-31 0 3 -82 c3 -78 4 -82
28 -88 31 -7 35 -44 4 -48 -65 -9 -94 38 -94 156 0 55 -2 62 -20 62 -14 0 -20
7 -20 24 0 15 7 26 20 29 13 3 20 14 20 29 0 31 9 40 35 36 15 -2 21 -12 23
-35z m-3845 -51 c25 -22 33 -39 41 -84 l7 -38 -96 0 c-88 0 -95 -1 -95 -20 0
-29 35 -60 68 -60 16 0 37 9 47 20 19 21 65 28 65 9 0 -37 -59 -79 -111 -79
-35 0 -89 31 -104 61 -20 38 -19 124 2 160 34 58 128 74 176 31z m280 16 c41
-21 46 -39 47 -150 l0 -108 -25 0 -25 0 0 100 c0 98 -1 101 -26 112 -21 10
-31 9 -52 -3 -32 -18 -40 -43 -41 -136 -1 -71 -2 -73 -26 -73 l-25 0 0 130 0
130 25 0 c17 0 25 -6 25 -17 0 -15 2 -15 18 -1 29 27 73 33 105 16z m477 -16
c55 -42 24 -71 -37 -35 -37 20 -83 11 -83 -17 0 -10 8 -21 18 -24 9 -3 36 -10
59 -16 70 -18 99 -78 61 -127 -16 -20 -77 -35 -115 -28 -41 7 -83 45 -83 75 0
29 37 26 62 -5 28 -36 98 -32 98 6 0 14 -14 23 -57 35 -72 21 -90 32 -97 60
-21 82 97 133 174 76z m824 7 c21 -17 26 -18 26 -5 0 10 9 16 25 16 l25 0 0
-130 0 -130 -25 0 c-17 0 -25 6 -25 17 0 14 -2 15 -17 1 -45 -39 -125 -25
-159 27 -24 36 -24 134 0 170 19 28 67 54 102 55 12 0 33 -9 48 -21z m449 -7
c25 -22 33 -39 41 -84 l7 -38 -96 0 c-88 0 -95 -1 -95 -20 0 -29 35 -60 68
-60 16 0 37 9 47 20 19 21 65 28 65 9 0 -37 -59 -79 -111 -79 -35 0 -89 31
-104 61 -20 38 -19 124 2 160 34 58 128 74 176 31z m267 0 c55 -42 24 -71 -37
-35 -37 20 -83 11 -83 -17 0 -10 8 -21 18 -24 9 -3 36 -10 59 -16 70 -18 99
-78 61 -127 -16 -20 -77 -35 -115 -28 -41 7 -83 45 -83 75 0 29 37 26 62 -5
28 -36 98 -32 98 6 0 14 -14 23 -57 35 -72 21 -90 32 -97 60 -21 82 97 133
174 76z m828 1 c3 -19 -1 -23 -23 -23 -62 0 -85 -40 -85 -151 0 -67 -1 -69
-25 -69 l-25 0 0 130 0 130 25 0 c17 0 25 -6 25 -17 0 -14 2 -15 18 -1 39 34
85 35 90 1z m197 13 c96 -41 100 -201 5 -249 -60 -30 -136 -5 -161 54 -30 73
-4 164 55 193 39 19 58 20 101 2z m-3585 -126 l0 -130 -25 0 -25 0 0 130 0
130 25 0 25 0 0 -130z m3960 0 l0 -130 -25 0 -25 0 0 130 0 130 25 0 25 0 0
-130z m-2805 -77 c31 -30 -3 -113 -47 -113 -23 0 -23 8 -1 33 17 18 17 19 0
28 -20 12 -22 40 -5 57 17 17 34 15 53 -5z m1550 0 c31 -30 -3 -113 -47 -113
-23 0 -23 8 -1 33 17 18 17 19 0 28 -20 12 -22 40 -5 57 17 17 34 15 53 -5z"/>
<path d="M5213 6620 c-12 -5 -32 -28 -45 -52 -22 -41 -23 -52 -23 -278 0 -264
6 -299 59 -331 41 -25 96 -24 129 1 46 36 52 75 52 335 0 224 -1 242 -21 275
-31 54 -91 74 -151 50z"/>
<path d="M4490 6465 c0 -154 0 -155 23 -155 65 1 95 50 96 155 1 114 -22 155
-88 155 l-31 0 0 -155z"/>
<path d="M4490 6115 l0 -165 39 0 c22 0 47 3 56 6 38 15 63 123 50 216 -10 70
-47 108 -104 108 l-41 0 0 -165z"/>
<path d="M6560 6286 l0 -336 48 0 c128 0 182 101 182 340 0 166 -26 261 -82
303 -15 11 -49 21 -86 24 l-62 6 0 -337z"/>
<path d="M3653 5600 c-12 -5 -32 -28 -45 -52 -22 -41 -23 -52 -23 -278 0 -264
6 -299 59 -331 41 -25 96 -24 129 1 46 36 52 75 52 335 0 224 -1 242 -21 275
-31 54 -91 74 -151 50z"/>
<path d="M6793 5600 c-12 -5 -32 -28 -45 -52 -22 -41 -23 -52 -23 -278 0 -264
6 -299 59 -331 41 -25 96 -24 129 1 46 36 52 75 52 335 0 224 -1 242 -21 275
-31 54 -91 74 -151 50z"/>
<path d="M6800 4415 l0 -65 55 0 c47 0 57 3 71 25 17 26 13 67 -8 92 -6 8 -33
13 -64 13 l-54 0 0 -65z"/>
<path d="M3950 4370 c-33 -33 -24 -40 45 -40 37 0 65 4 65 10 0 19 -40 50 -65
50 -14 0 -34 -9 -45 -20z"/>
<path d="M5560 4370 c-28 -28 -28 -108 0 -138 53 -56 136 11 116 93 -15 60
-77 84 -116 45z"/>
<path d="M5980 4370 c-33 -33 -24 -40 45 -40 37 0 65 4 65 10 0 19 -40 50 -65
50 -14 0 -34 -9 -45 -20z"/>
<path d="M7302 4367 c-31 -33 -31 -108 0 -137 27 -25 59 -26 89 -1 20 16 24
29 24 71 0 42 -4 55 -24 71 -31 25 -63 24 -89 -4z"/>
</g>
</svg>
